<svg width="724" height="903" viewBox="0 0 724 903" fill="none" xmlns="http://www.w3.org/2000/svg">
<path d="M509.544 60.1131L510.205 60.6062L510.991 60.8603C566.138 78.7074 598.418 124.699 620.485 166.854C625.984 177.359 630.821 187.567 635.216 196.997C635.969 198.611 636.71 200.205 637.44 201.776C640.953 209.335 644.211 216.346 647.284 222.398C650.967 229.652 654.582 235.936 658.324 240.33C659.899 242.18 661.697 243.925 663.72 245.244C663.008 247.314 662.626 249.636 662.441 252.04C661.973 258.144 662.69 266.189 664.143 275.493C667.062 294.19 673.193 319.368 680.327 347.293C682.085 354.173 683.904 361.224 685.755 368.396C698.978 419.644 713.791 477.048 718.987 522.179C719.122 537.246 718.319 550.63 710.379 567.152C692.626 596.835 663.813 629.289 622.445 666.757L621.282 667.811L620.929 669.34C615.903 691.144 609.609 702.857 603.449 712.242C602.07 714.343 600.65 716.387 599.219 718.447C594.291 725.542 589.235 732.82 585.292 743.235L584.799 744.537L585.05 745.906C588.577 765.16 583.765 777.353 575.921 787.195C571.875 792.273 566.952 796.801 561.607 801.406C560.339 802.498 559.038 803.602 557.721 804.72C553.598 808.218 549.317 811.851 545.385 815.69L544.164 816.883L543.927 818.573C540.657 841.877 520.15 861.132 488.175 875.014C456.438 888.793 414.745 896.633 372.012 897.837C329.291 899.041 285.947 893.6 250.936 881.154C215.769 868.652 189.997 849.464 180.606 823.865L180.247 822.887L179.527 822.133C178.105 820.646 176.685 819.166 175.27 817.693C164.103 806.064 153.332 794.847 145.7 783.284C137.18 770.375 133.128 757.841 136.505 744.666L137.075 742.441L135.759 740.559C121.058 719.536 108.109 698.24 103.398 671.456L103.113 669.837L101.924 668.703C99.0984 666.01 96.2703 663.325 93.4482 660.645C60.992 629.83 29.341 599.778 12.4835 567.43C7.31877 557.453 3.91007 547.405 5.31995 535.999L5.34853 535.768L5.35549 535.535C6.87682 484.653 24.5467 416.984 39.7089 358.92C40.1543 357.214 40.5975 355.516 41.0381 353.828C48.7097 324.429 55.5912 297.692 58.9789 277.595C60.6667 267.582 61.5509 258.872 61.1238 252.161C60.9104 248.807 60.3542 245.648 59.209 242.98C59.1554 242.856 59.1002 242.731 59.0433 242.607C67.8822 237.032 73.901 227.377 79.2159 216.331C82.1839 210.163 85.0708 203.244 88.118 195.941C88.4516 195.141 88.7871 194.337 89.1249 193.529C92.5696 185.285 96.2877 176.511 100.708 167.414C118.28 131.245 147.026 89.7669 212.704 60.6748L213.199 60.4557L213.635 60.136C260.445 25.8273 308.099 6.35059 357 5.06774C405.854 3.78612 456.558 20.6472 509.544 60.1131Z" fill="white" stroke="#8C52FF" stroke-width="10"/>
<path d="M502.703 89.9232C404.299 16.6322 312.905 26.286 226.075 89.9232C103.229 144.334 117.938 245.71 79.7954 259.33C102.523 269.583 36.2365 431.85 33.3278 529.127C31.8719 540.904 35.4523 551.098 40.3758 560.607C57.6079 593.673 91.1526 624.022 123.245 654.612C127.744 680.188 140.106 700.386 153.66 719.769C146.566 747.442 171.346 771.131 194.212 795.061C231.406 896.433 522.668 884.386 536.014 789.269C554.484 771.234 580.634 759.231 573.67 721.217C582.521 697.839 597.034 694.008 606.509 652.909C644.647 618.369 671.461 588.221 688.058 560.411C695.91 544.166 696.625 530.974 696.488 516.741C685.598 421.595 628.361 267.576 648.982 260.778C623.955 264.082 607.341 123.784 502.703 89.9232Z" fill="#8C52FF"/>
<path d="M226.234 89.6153C110.445 211.123 218.349 190.129 139.783 326.326C118.281 406.489 188.625 545.395 224.095 549.315C232.19 549.964 237.669 544.007 244.526 531.175C275.03 474.085 415.807 430.94 486.481 534.169C490.182 539.576 494.342 547.771 500.91 548.29C550.841 545.556 613.353 381.618 589.081 326.996C509.106 180.824 616.976 205.255 504.073 90.1587C412.888 20.5852 320.32 18.1723 226.234 89.6153Z" fill="white" stroke="#8C52FF" stroke-width="2"/>
<path d="M556.39 298.725C564.698 302.516 571.709 308.428 575.713 319.263C588.086 351.296 583.189 381.135 574.266 410.463C566.585 423.152 557.631 435.089 535.183 439.053C478.608 442.479 422.605 444.774 396.224 388.749C381.82 351.974 387.922 316.969 405.271 305.51C412.758 298.947 422.516 295.792 433.859 295.016L532.397 294.693C541.934 294.918 550.375 296.754 556.39 298.725Z" stroke="#8C52FF" stroke-width="10"/>
<path d="M171.601 297.968C163.293 301.76 156.281 307.671 152.278 318.507C139.905 350.539 144.801 380.379 153.725 409.707C161.407 422.396 170.361 434.334 192.807 438.297C249.384 441.723 305.386 444.019 331.767 387.993C346.17 351.219 340.069 316.213 322.72 304.754C315.234 298.191 305.475 295.035 294.132 294.259L195.593 293.937C186.057 294.162 177.616 295.998 171.601 297.968Z" stroke="#8C52FF" stroke-width="10"/>
<path d="M290.693 294.016L432.764 294.728C421.935 295.778 412.304 298.269 405.798 304.517L322.546 304.16C313.711 297.274 303.384 293.319 290.693 294.016Z" fill="#8C52FF" stroke="#8C52FF" stroke-width="0.461071"/>
<path d="M237.794 148.973C333.566 132.439 415.676 137.173 492.464 148.973V150.354C451.262 142.859 406.176 139.456 368.043 132.973C325.46 138.367 281.297 143.298 237.794 150.354V148.973Z" fill="#8C52FF" stroke="#8C52FF" stroke-width="2"/>
<path d="M246.862 183.102C335.814 168.003 412.075 172.327 483.396 183.102V184.361C445.127 177.517 403.252 174.41 367.835 168.491C328.285 173.417 287.267 177.918 246.862 184.361V183.102Z" fill="#8C52FF" stroke="#8C52FF" stroke-width="2"/>
<path d="M289.181 549.466L292.227 540.991L301.218 534.269L318.62 534.123L341.533 530.909L365.026 534.416L391.709 530.47L408.821 533.539L427.094 534.416L436.665 539.676L439.565 548.736L428.254 544.353L401.135 552.243L366.621 556.92L334.572 553.997L302.378 543.33L289.181 549.466Z" fill="white" stroke="#8C52FF" stroke-width="0.0790539"/>
<path d="M312.608 601.89L352.651 609.894L376.255 609.473L418.406 599.995L405.339 647.387L381.524 681.3L366.35 686.144L350.333 681.51L325.885 649.283L312.608 601.89Z" fill="white"/>
</svg>
